<svg version="1.1" xmlns="http://www.w3.org/2000/svg" width="160px" height="160px" style="background: #FFFFFF">
<rect x="20" y="20" width="8" height="8" style="fill:#000000"></rect>
<rect x="20" y="28" width="8" height="8" style="fill:#000000"></rect>
<rect x="20" y="36" width="8" height="8" style="fill:#000000"></rect>
<rect x="20" y="44" width="8" height="8" style="fill:#000000"></rect>
<rect x="20" y="52" width="8" height="8" style="fill:#000000"></rect>
<rect x="20" y="60" width="8" height="8" style="fill:#000000"></rect>
<rect x="20" y="68" width="8" height="8" style="fill:#000000"></rect>
<rect x="28" y="20" width="8" height="8" style="fill:#000000"></rect>
<rect x="28" y="52" width="8" height="8" style="fill:#000000"></rect>
<rect x="36" y="20" width="8" height="8" style="fill:#000000"></rect>
<rect x="36" y="28" width="8" height="8" style="fill:#000000"></rect>
<rect x="36" y="36" width="8" height="8" style="fill:#000000"></rect>
<rect x="36" y="44" width="8" height="8" style="fill:#000000"></rect>
<rect x="36" y="52" width="8" height="8" style="fill:#000000"></rect>
<rect x="36" y="60" width="8" height="8" style="fill:#000000"></rect>
<rect x="36" y="68" width="8" height="8" style="fill:#000000"></rect>

<rect x="44" y="68" width="8" height="8" style="fill:#000000"></rect>
<rect x="52" y="20" width="8" height="8" style="fill:#000000"></rect>
<rect x="52" y="28" width="8" height="8" style="fill:#000000"></rect>
<rect x="52" y="36" width="8" height="8" style="fill:#000000"></rect>
<rect x="52" y="44" width="8" height="8" style="fill:#000000"></rect>
<rect x="52" y="52" width="8" height="8" style="fill:#000000"></rect>
<rect x="52" y="68" width="8" height="8" style="fill:#000000"></rect>
<rect x="60" y="20" width="8" height="8" style="fill:#000000"></rect>
<rect x="60" y="36" width="8" height="8" style="fill:#000000"></rect>
<rect x="60" y="52" width="8" height="8" style="fill:#000000"></rect>
<rect x="60" y="68" width="8" height="8" style="fill:#000000"></rect>
<rect x="68" y="20" width="8" height="8" style="fill:#000000"></rect>
<rect x="68" y="28" width="8" height="8" style="fill:#000000"></rect>
<rect x="68" y="36" width="8" height="8" style="fill:#000000"></rect>
<rect x="68" y="44" width="8" height="8" style="fill:#000000"></rect>
<rect x="68" y="52" width="8" height="8" style="fill:#000000"></rect>
<rect x="68" y="68" width="8" height="8" style="fill:#000000"></rect>

<rect x="76" y="68" width="8" height="8" style="fill:#000000"></rect>
<rect x="84" y="20" width="8" height="8" style="fill:#000000"></rect>
<rect x="84" y="28" width="8" height="8" style="fill:#000000"></rect>
<rect x="84" y="36" width="8" height="8" style="fill:#000000"></rect>
<rect x="84" y="44" width="8" height="8" style="fill:#000000"></rect>
<rect x="84" y="52" width="8" height="8" style="fill:#000000"></rect>
<rect x="84" y="60" width="8" height="8" style="fill:#000000"></rect>
<rect x="84" y="68" width="8" height="8" style="fill:#000000"></rect>
<rect x="92" y="20" width="8" height="8" style="fill:#000000"></rect>
<rect x="92" y="68" width="8" height="8" style="fill:#000000"></rect>
<rect x="100" y="20" width="8" height="8" style="fill:#000000"></rect>
<rect x="100" y="28" width="8" height="8" style="fill:#000000"></rect>
<rect x="100" y="36" width="8" height="8" style="fill:#000000"></rect>
<rect x="100" y="52" width="8" height="8" style="fill:#000000"></rect>
<rect x="100" y="60" width="8" height="8" style="fill:#000000"></rect>
<rect x="100" y="68" width="8" height="8" style="fill:#000000"></rect>

<rect x="116" y="20" width="8" height="8" style="fill:#000000"></rect>
<rect x="116" y="28" width="8" height="8" style="fill:#000000"></rect>
<rect x="116" y="36" width="8" height="8" style="fill:#000000"></rect>
<rect x="116" y="52" width="8" height="8" style="fill:#000000"></rect>
<rect x="116" y="60" width="8" height="8" style="fill:#000000"></rect>
<rect x="116" y="68" width="8" height="8" style="fill:#000000"></rect>
<rect x="124" y="20" width="8" height="8" style="fill:#000000"></rect>
<rect x="124" y="36" width="8" height="8" style="fill:#000000"></rect>
<rect x="124" y="52" width="8" height="8" style="fill:#000000"></rect>
<rect x="124" y="68" width="8" height="8" style="fill:#000000"></rect>
<rect x="132" y="20" width="8" height="8" style="fill:#000000"></rect>
<rect x="132" y="28" width="8" height="8" style="fill:#000000"></rect>
<rect x="132" y="36" width="8" height="8" style="fill:#000000"></rect>
<rect x="132" y="44" width="8" height="8" style="fill:#000000"></rect>
<rect x="132" y="52" width="8" height="8" style="fill:#000000"></rect>
<rect x="132" y="60" width="8" height="8" style="fill:#000000"></rect>
<rect x="132" y="68" width="8" height="8" style="fill:#000000"></rect>

<rect x="20" y="84" width="8" height="8" style="fill:#000000"></rect>
<rect x="20" y="92" width="8" height="8" style="fill:#000000"></rect>
<rect x="20" y="100" width="8" height="8" style="fill:#000000"></rect>
<rect x="20" y="116" width="8" height="8" style="fill:#000000"></rect>
<rect x="20" y="124" width="8" height="8" style="fill:#000000"></rect>
<rect x="20" y="132" width="8" height="8" style="fill:#000000"></rect>
<rect x="28" y="84" width="8" height="8" style="fill:#000000"></rect>
<rect x="28" y="100" width="8" height="8" style="fill:#000000"></rect>
<rect x="28" y="132" width="8" height="8" style="fill:#000000"></rect>
<rect x="36" y="84" width="8" height="8" style="fill:#000000"></rect>
<rect x="36" y="100" width="8" height="8" style="fill:#000000"></rect>
<rect x="36" y="108" width="8" height="8" style="fill:#000000"></rect>
<rect x="36" y="116" width="8" height="8" style="fill:#000000"></rect>
<rect x="36" y="124" width="8" height="8" style="fill:#000000"></rect>
<rect x="36" y="132" width="8" height="8" style="fill:#000000"></rect>

<rect x="44" y="132" width="8" height="8" style="fill:#000000"></rect>
<rect x="52" y="84" width="8" height="8" style="fill:#000000"></rect>
<rect x="52" y="92" width="8" height="8" style="fill:#000000"></rect>
<rect x="52" y="100" width="8" height="8" style="fill:#000000"></rect>
<rect x="52" y="108" width="8" height="8" style="fill:#000000"></rect>
<rect x="52" y="132" width="8" height="8" style="fill:#000000"></rect>
<rect x="60" y="84" width="8" height="8" style="fill:#000000"></rect>
<rect x="60" y="108" width="8" height="8" style="fill:#000000"></rect>
<rect x="60" y="116" width="8" height="8" style="fill:#000000"></rect>
<rect x="60" y="132" width="8" height="8" style="fill:#000000"></rect>
<rect x="68" y="84" width="8" height="8" style="fill:#000000"></rect>
<rect x="68" y="92" width="8" height="8" style="fill:#000000"></rect>
<rect x="68" y="100" width="8" height="8" style="fill:#000000"></rect>
<rect x="68" y="108" width="8" height="8" style="fill:#000000"></rect>
<rect x="68" y="132" width="8" height="8" style="fill:#000000"></rect>

<rect x="76" y="132" width="8" height="8" style="fill:#000000"></rect>
<rect x="84" y="84" width="8" height="8" style="fill:#000000"></rect>
<rect x="84" y="92" width="8" height="8" style="fill:#000000"></rect>
<rect x="84" y="100" width="8" height="8" style="fill:#000000"></rect>
<rect x="84" y="108" width="8" height="8" style="fill:#000000"></rect>
<rect x="84" y="116" width="8" height="8" style="fill:#000000"></rect>
<rect x="84" y="124" width="8" height="8" style="fill:#000000"></rect>
<rect x="84" y="132" width="8" height="8" style="fill:#000000"></rect>
<rect x="92" y="84" width="8" height="8" style="fill:#000000"></rect>
<rect x="92" y="132" width="8" height="8" style="fill:#000000"></rect>
<rect x="100" y="84" width="8" height="8" style="fill:#000000"></rect>
<rect x="100" y="92" width="8" height="8" style="fill:#000000"></rect>
<rect x="100" y="100" width="8" height="8" style="fill:#000000"></rect>
<rect x="100" y="108" width="8" height="8" style="fill:#000000"></rect>
<rect x="100" y="116" width="8" height="8" style="fill:#000000"></rect>
<rect x="100" y="124" width="8" height="8" style="fill:#000000"></rect>
<rect x="100" y="132" width="8" height="8" style="fill:#000000"></rect>

<rect x="108" y="132" width="8" height="8" style="fill:#000000"></rect>
<rect x="116" y="84" width="8" height="8" style="fill:#000000"></rect>
<rect x="116" y="92" width="8" height="8" style="fill:#000000"></rect>
<rect x="116" y="100" width="8" height="8" style="fill:#000000"></rect>
<rect x="116" y="108" width="8" height="8" style="fill:#000000"></rect>
<rect x="116" y="116" width="8" height="8" style="fill:#000000"></rect>
<rect x="116" y="124" width="8" height="8" style="fill:#000000"></rect>
<rect x="116" y="132" width="8" height="8" style="fill:#000000"></rect>
<rect x="124" y="84" width="8" height="8" style="fill:#000000"></rect>
<rect x="124" y="100" width="8" height="8" style="fill:#000000"></rect>
<rect x="132" y="84" width="8" height="8" style="fill:#000000"></rect>
<rect x="132" y="100" width="8" height="8" style="fill:#000000"></rect>
<rect x="132" y="116" width="8" height="8" style="fill:#000000"></rect>
<rect x="132" y="124" width="8" height="8" style="fill:#000000"></rect>
<rect x="132" y="132" width="8" height="8" style="fill:#000000"></rect>

<rect x="132" y="116" width="8" height="8" style="fill:#000000"></rect>
<rect x="132" y="124" width="8" height="8" style="fill:#000000"></rect>
<rect x="132" y="132" width="8" height="8" style="fill:#000000"></rect>
</svg>